<?xml version="1.0" encoding="UTF-8" standalone="no"?>
<svg
   xmlns:dc="http://purl.org/dc/elements/1.1/"
   xmlns:cc="http://creativecommons.org/ns#"
   xmlns:rdf="http://www.w3.org/1999/02/22-rdf-syntax-ns#"
   xmlns:svg="http://www.w3.org/2000/svg"
   xmlns="http://www.w3.org/2000/svg"
   xmlns:sodipodi="http://sodipodi.sourceforge.net/DTD/sodipodi-0.dtd"
   xmlns:inkscape="http://www.inkscape.org/namespaces/inkscape"
   version="1.1"
   id="Layer_1"
   x="0px"
   y="0px"
   viewBox="0 0 141.58 54.12"
   style="enable-background:new 0 0 141.58 54.12;"
   xml:space="preserve"
   sodipodi:docname="minimo-logo.svg"
   inkscape:export-filename="/home/jackbo/projects/foco/minimo/public/images/minimo-logo.png"
   inkscape:export-xdpi="300.47101"
   inkscape:export-ydpi="300.47101"
   inkscape:version="1.0.1 (3bc2e813f5, 2020-09-07)"><metadata
   id="metadata899"><rdf:RDF><cc:Work
       rdf:about=""><dc:format>image/svg+xml</dc:format><dc:type
         rdf:resource="http://purl.org/dc/dcmitype/StillImage" /><dc:title></dc:title></cc:Work></rdf:RDF></metadata><defs
   id="defs897" /><sodipodi:namedview
   pagecolor="#ffffff"
   bordercolor="#666666"
   borderopacity="1"
   objecttolerance="10"
   gridtolerance="10"
   guidetolerance="10"
   inkscape:pageopacity="0"
   inkscape:pageshadow="2"
   inkscape:window-width="1920"
   inkscape:window-height="1216"
   id="namedview895"
   showgrid="false"
   inkscape:zoom="6.9642605"
   inkscape:cx="70.79"
   inkscape:cy="27.06"
   inkscape:window-x="0"
   inkscape:window-y="0"
   inkscape:window-maximized="1"
   inkscape:current-layer="Layer_1" />
<style
   type="text/css"
   id="style876">
	.st0{fill:#FFFFFF;stroke:#000000;stroke-width:0.9681;stroke-miterlimit:10;}
</style>
<rect
   x="6.45"
   y="6.8"
   class="st0"
   width="128.61"
   height="40.59"
   id="rect878"
   style="fill:#ffffff;fill-opacity:0" />
<g
   id="g892">
	<path
   d="M37.62,19.02c0.82,0.33,1.56,0.9,2.23,1.72c0.54,0.67,0.9,1.49,1.09,2.46c0.12,0.64,0.18,1.59,0.18,2.83l-0.04,12.08h-5.13   v-12.2c0-0.73-0.12-1.32-0.35-1.79c-0.45-0.89-1.27-1.34-2.46-1.34c-1.38,0-2.34,0.57-2.87,1.72c-0.27,0.61-0.4,1.34-0.4,2.2v11.41   h-5.04V26.7c0-1.14-0.12-1.96-0.35-2.48c-0.42-0.93-1.25-1.39-2.48-1.39c-1.43,0-2.39,0.46-2.88,1.39c-0.27,0.53-0.4,1.31-0.4,2.36   v11.53h-5.08V18.98h4.87v2.79c0.62-1,1.21-1.71,1.76-2.13c0.97-0.75,2.23-1.12,3.78-1.12c1.46,0,2.65,0.32,3.55,0.97   c0.73,0.6,1.28,1.37,1.65,2.3c0.66-1.12,1.47-1.95,2.44-2.48c1.03-0.53,2.18-0.79,3.45-0.79C35.97,18.53,36.8,18.69,37.62,19.02z"
   id="path880" />
	<path
   d="M49.07,16.66h-5.08v-4.62h5.08V16.66z M43.99,18.95h5.08v19.16h-5.08V18.95z"
   id="path882" />
	<path
   d="M67.58,20.05c1.25,1.04,1.88,2.76,1.88,5.16v12.9h-5.13V26.45c0-1.01-0.13-1.78-0.4-2.32c-0.49-0.98-1.42-1.48-2.79-1.48   c-1.69,0-2.84,0.72-3.47,2.16c-0.33,0.76-0.49,1.73-0.49,2.92v10.37h-5.01V18.98h4.85v2.79c0.64-0.98,1.25-1.69,1.82-2.13   c1.03-0.77,2.33-1.16,3.9-1.16C64.71,18.49,66.32,19.01,67.58,20.05z"
   id="path884" />
	<path
   d="M77.47,16.66h-5.08v-4.62h5.08V16.66z M72.39,18.95h5.08v19.16h-5.08V18.95z"
   id="path886" />
	<path
   d="M104.42,19.02c0.82,0.33,1.56,0.9,2.23,1.72c0.54,0.67,0.9,1.49,1.09,2.46c0.12,0.64,0.18,1.59,0.18,2.83l-0.04,12.08   h-5.13v-12.2c0-0.73-0.12-1.32-0.35-1.79c-0.45-0.89-1.27-1.34-2.46-1.34c-1.38,0-2.34,0.57-2.87,1.72c-0.27,0.61-0.4,1.34-0.4,2.2   v11.41h-5.04V26.7c0-1.14-0.12-1.96-0.35-2.48c-0.42-0.93-1.25-1.39-2.48-1.39c-1.43,0-2.39,0.46-2.88,1.39   c-0.27,0.53-0.4,1.31-0.4,2.36v11.53h-5.08V18.98h4.87v2.79c0.62-1,1.21-1.71,1.76-2.13c0.97-0.75,2.23-1.12,3.78-1.12   c1.46,0,2.65,0.32,3.55,0.97c0.73,0.6,1.28,1.37,1.65,2.3c0.66-1.12,1.47-1.95,2.44-2.48c1.03-0.53,2.18-0.79,3.45-0.79   C102.77,18.53,103.6,18.69,104.42,19.02z"
   id="path888" />
	<path
   d="M126.71,35.76c-1.62,2-4.07,2.99-7.37,2.99s-5.75-1-7.37-2.99c-1.62-2-2.43-4.4-2.43-7.21c0-2.76,0.81-5.16,2.43-7.18   c1.62-2.03,4.07-3.04,7.37-3.04s5.75,1.01,7.37,3.04c1.62,2.03,2.43,4.42,2.43,7.18C129.13,31.36,128.32,33.77,126.71,35.76z    M122.7,32.99c0.79-1.04,1.18-2.52,1.18-4.44c0-1.92-0.39-3.4-1.18-4.43c-0.79-1.04-1.91-1.55-3.38-1.55s-2.59,0.52-3.38,1.55   c-0.79,1.04-1.19,2.51-1.19,4.43c0,1.92,0.4,3.4,1.19,4.44c0.79,1.04,1.92,1.56,3.38,1.56S121.91,34.04,122.7,32.99z"
   id="path890" />
</g>
</svg>
